PathFileType	4	(X/Y/Z)	./trials/Ivanov/data/jump_js_1.trc
DataRate	CameraRate	NumFrames	NumMarkers	Units	OrigDataRate	OrigDataStartFrame	OrigNumFrames
400	400	4	71	mm	400	179	285
Frame#	Time	r_illiac			r_troch			r_asis			l_illiac			l_troch			l_asis			r_psis			sacrum			l_psis			r_thigh1			r_thigh2			r_thigh3			r_thigh4			rl_knee			rm_knee			r_shank1			r_shank2			r_shank3			r_shank4			r_heel			rl_ankle			rm_ankle			r_metatarsal5			r_metatarsal1			l_thigh1			l_thigh2			l_thigh3			l_thigh4			ll_knee			lm_knee			l_shank1			l_shank2			l_shank3			l_shank4			l_heel			ll_ankle			lm_ankle			l_metatarsal5			l_metatarsal1			back_down			neck			back_right			back_left			head_up			head_front			head_left			head_right			r_shoulder			r_humerus1			r_humerus2			r_humerus3			rl_elbow			rm_elbow			r_radius1			r_radius2			r_radius3			rl_wrist			rm_wrist			r_hand			l_shoulder			l_humerus1			l_humerus2			l_humerus3			ll_elbow			lm_elbow			l_radius1			l_radius2			l_radius3			ll_wrist			lm_wrist			l_hand		
		X1	Y1	Z1	X2	Y2	Z2	X3	Y3	Z3	X4	Y4	Z4	X5	Y5	Z5	X6	Y6	Z6	X7	Y7	Z7	X8	Y8	Z8	X9	Y9	Z9	X10	Y10	Z10	X11	Y11	Z11	X12	Y12	Z12	X13	Y13	Z13	X14	Y14	Z14	X15	Y15	Z15	X16	Y16	Z16	X17	Y17	Z17	X18	Y18	Z18	X19	Y19	Z19	X20	Y20	Z20	X21	Y21	Z21	X22	Y22	Z22	X23	Y23	Z23	X24	Y24	Z24	X25	Y25	Z25	X26	Y26	Z26	X27	Y27	Z27	X28	Y28	Z28	X29	Y29	Z29	X30	Y30	Z30	X31	Y31	Z31	X32	Y32	Z32	X33	Y33	Z33	X34	Y34	Z34	X35	Y35	Z35	X36	Y36	Z36	X37	Y37	Z37	X38	Y38	Z38	X39	Y39	Z39	X40	Y40	Z40	X41	Y41	Z41	X42	Y42	Z42	X43	Y43	Z43	X44	Y44	Z44	X45	Y45	Z45	X46	Y46	Z46	X47	Y47	Z47	X48	Y48	Z48	X49	Y49	Z49	X50	Y50	Z50	X51	Y51	Z51	X52	Y52	Z52	X53	Y53	Z53	X54	Y54	Z54	X55	Y55	Z55	X56	Y56	Z56	X57	Y57	Z57	X58	Y58	Z58	X59	Y59	Z59	X60	Y60	Z60	X61	Y61	Z61	X62	Y62	Z62	X63	Y63	Z63	X64	Y64	Z64	X65	Y65	Z65	X66	Y66	Z66	X67	Y67	Z67	X68	Y68	Z68	X69	Y69	Z69	X70	Y70	Z70	X71	Y71	Z71
179	0.4450	-336.618	1167.321	570.124	-371.526	993.556	598.894	-272.389	1101.625	535.757	-332.010	1167.668	226.305	-396.449	1003.945	218.122	-277.396	1097.509	266.391	-444.464	1168.512	450.773	-434.313	1195.166	402.859	-447.760	1165.958	351.732	-343.013	871.212	611.160	-267.924	888.908	594.751	-251.486	763.165	601.123	-309.429	753.146	614.698	-290.577	609.970	605.441	-275.518	591.760	478.122	-357.797	485.262	622.928	-285.299	488.735	614.383	-283.749	377.927	614.547	-346.868	377.238	625.790	-401.395	143.250	554.440	-327.519	163.976	610.016	-286.419	174.960	512.873	-208.730	39.226	609.650	-178.332	55.809	524.646	-337.429	900.662	195.419	-270.604	909.860	213.797	-248.281	788.973	203.126	-314.382	777.936	187.683	-293.435	606.113	185.543	-280.913	559.959	318.190	-373.358	498.224	180.006	-303.541	495.725	171.234	-310.081	390.659	164.195	-368.753	387.881	171.394	-402.869	151.175	226.169	-330.769	160.270	168.724	-289.319	169.190	270.778	-214.883	38.284	158.996	-181.690	49.784	251.945	-398.240	1316.960	397.817	-291.598	1632.029	392.102	-348.776	1508.565	499.523	-360.019	1508.760	287.960	-158.617	1892.565	379.326	-27.265	1817.286	370.643	-135.866	1799.466	280.192	-133.634	1808.622	471.264	-154.939	1635.319	552.916	-165.370	1467.480	645.454	-224.789	1560.707	715.987	-228.840	1456.750	728.792	-278.282	1376.290	781.080	-372.292	1411.790	745.241	-262.868	1291.200	684.632	-314.810	1265.991	792.106	-308.031	1206.912	708.307	-362.109	1168.985	621.900	-340.541	1123.891	701.727	-310.986	1115.549	625.526	-208.922	1660.086	227.694	-184.728	1490.404	143.918	-270.163	1570.963	84.298	-257.291	1471.210	73.919	-319.955	1377.536	11.513	-393.775	1411.877	65.434	-294.283	1279.610	131.503	-327.750	1228.149	15.465	-327.205	1183.645	107.259	-369.006	1158.944	178.251	-341.279	1124.068	98.840	-323.379	1104.368	164.477
180	0.4475	-335.059	1174.418	570.157	-370.040	1000.405	598.679	-270.507	1108.788	535.941	-331.042	1175.169	226.187	-395.801	1010.955	219.066	-275.894	1104.812	265.929	-442.663	1174.638	451.114	-432.972	1201.403	403.198	-446.330	1172.292	351.912	-343.093	878.458	611.683	-267.997	893.780	594.322	-253.855	768.018	600.726	-312.004	759.059	614.358	-296.170	615.502	605.378	-281.569	597.642	477.106	-362.842	490.178	622.248	-290.379	495.426	614.946	-285.845	384.737	615.906	-349.097	382.488	626.056	-397.418	150.913	556.119	-323.934	169.749	612.153	-281.481	180.464	515.655	-207.574	40.977	610.598	-176.238	58.553	526.426	-337.490	906.774	195.263	-270.385	915.167	213.306	-249.732	794.022	203.172	-316.140	783.791	188.068	-298.418	611.879	185.856	-285.151	566.110	319.143	-377.350	502.912	181.442	-307.731	501.931	171.539	-312.035	396.705	163.555	-370.411	392.763	171.633	-398.647	158.320	224.486	-326.974	165.792	166.499	-284.077	174.589	268.353	-213.620	39.468	158.113	-179.514	52.089	250.470	-398.060	1323.947	398.009	-292.479	1639.358	392.084	-349.433	1516.056	499.132	-360.901	1516.276	288.393	-158.823	1899.745	379.447	-27.567	1824.074	371.090	-135.988	1806.680	280.364	-134.247	1815.749	471.414	-156.088	1642.682	552.656	-165.856	1474.877	645.067	-225.191	1567.780	716.250	-228.902	1463.754	728.659	-277.740	1383.091	781.061	-372.113	1418.333	745.808	-262.276	1298.054	684.659	-313.834	1272.421	792.235	-306.988	1213.570	708.514	-360.930	1175.278	622.211	-339.126	1130.331	702.040	-309.539	1122.305	625.859	-209.962	1667.344	228.007	-185.108	1497.535	144.413	-270.553	1577.720	84.200	-257.483	1478.094	74.207	-319.603	1384.096	11.710	-393.606	1418.455	65.203	-294.223	1286.147	131.739	-327.361	1234.787	15.562	-326.937	1190.191	107.315	-368.761	1165.552	178.373	-341.266	1130.615	98.770	-322.598	1111.211	164.287
181	0.4500	-333.450	1181.524	570.232	-368.571	1007.101	598.438	-268.695	1115.890	536.061	-330.122	1182.659	226.174	-395.048	1017.740	219.452	-274.581	1112.150	265.592	-440.890	1180.779	451.553	-431.544	1207.451	403.631	-444.932	1178.705	352.057	-343.666	884.205	611.072	-268.045	899.043	594.346	-255.815	772.685	600.468	-314.532	764.898	614.056	-301.886	621.143	605.270	-287.934	603.571	475.673	-367.743	495.095	621.553	-295.276	502.189	615.577	-287.852	391.752	617.157	-351.178	387.769	626.245	-393.767	158.904	557.738	-320.518	176.061	614.241	-276.903	186.563	518.166	-206.439	43.150	611.559	-173.954	61.817	528.481	-337.598	912.810	195.027	-270.269	920.416	212.677	-251.287	798.996	203.191	-318.004	789.501	188.447	-303.407	617.588	186.169	-289.432	572.448	320.064	-381.145	507.468	182.848	-311.573	508.342	171.828	-313.876	402.938	163.062	-371.789	397.755	171.826	-394.366	165.904	222.731	-323.114	171.848	164.387	-279.165	179.798	265.916	-212.369	40.970	157.141	-177.192	54.767	248.673	-397.866	1330.933	398.237	-293.351	1646.502	392.099	-350.075	1523.348	498.673	-361.712	1523.756	288.858	-158.993	1906.756	379.650	-27.826	1830.677	371.493	-136.042	1813.696	280.539	-134.774	1822.649	471.535	-157.531	1650.117	552.569	-166.242	1482.278	644.735	-225.655	1574.630	716.464	-228.924	1470.526	728.480	-277.298	1389.861	781.032	-371.913	1424.711	746.403	-261.788	1304.958	684.767	-312.900	1279.115	792.499	-305.947	1220.134	708.695	-359.823	1181.606	622.521	-337.713	1136.767	702.337	-307.982	1129.107	626.226	-210.971	1674.480	228.288	-185.657	1504.728	144.930	-270.919	1584.396	84.078	-257.658	1484.781	74.471	-319.299	1390.629	11.842	-393.494	1425.008	64.916	-294.127	1292.620	131.979	-326.976	1241.302	15.670	-326.679	1196.671	107.416	-368.492	1172.044	178.434	-341.176	1137.039	98.783	-322.252	1118.046	164.146
182	0.4525	-331.703	1188.640	570.492	-367.124	1013.774	598.131	-266.932	1122.983	536.224	-329.339	1190.229	226.117	-394.221	1024.553	219.933	-273.409	1119.195	265.306	-439.161	1186.960	452.009	-430.108	1213.483	403.959	-443.537	1184.976	352.297	-343.949	890.479	610.941	-268.126	903.971	594.321	-258.217	777.325	600.103	-317.080	770.659	613.784	-307.167	626.961	605.458	-294.577	609.536	473.930	-372.384	499.951	620.886	-300.009	508.963	616.266	-289.747	398.799	618.435	-353.146	393.289	626.336	-390.649	166.982	559.219	-317.627	182.820	616.041	-273.103	193.070	520.523	-205.613	45.903	612.562	-171.855	66.016	530.805	-337.849	918.812	194.819	-270.275	925.523	212.015	-253.053	803.791	203.259	-319.977	795.138	188.811	-308.318	623.461	186.438	-293.725	578.486	321.096	-384.773	512.200	184.211	-315.277	514.663	172.146	-315.429	409.269	162.664	-372.916	402.768	172.055	-390.292	174.406	220.976	-319.394	178.324	162.460	-274.578	185.683	263.679	-211.513	43.053	156.297	-175.029	58.049	246.673	-397.827	1337.811	398.534	-294.216	1653.587	392.090	-350.724	1530.614	498.253	-362.390	1531.052	289.323	-159.010	1913.546	379.843	-28.026	1837.140	371.850	-136.200	1820.600	280.732	-135.082	1829.394	471.687	-158.776	1657.303	552.414	-166.666	1489.568	644.410	-226.103	1581.468	716.711	-229.049	1477.342	728.376	-277.016	1396.412	781.027	-371.943	1430.860	746.836	-261.261	1311.571	684.802	-312.027	1285.434	792.648	-303.401	1226.454	709.160	-358.815	1187.872	622.851	-336.318	1143.113	702.695	-306.653	1135.505	626.489	-212.102	1681.567	228.573	-186.151	1511.639	145.490	-271.309	1591.056	83.947	-257.822	1491.374	74.702	-318.957	1397.050	11.947	-393.334	1431.579	64.655	-294.136	1299.192	132.210	-326.645	1247.768	15.860	-326.355	1203.124	107.590	-368.078	1178.303	178.352	-341.025	1143.511	98.827	-321.833	1124.802	164.082
